HIERARCHY
ROOT hip
{
	OFFSET 0.000000 0.000000 0.000000 
	CHANNELS 6 Xposition Yposition Zposition Xrotation Zrotation Yrotation
	JOINT abdomen
	{
		OFFSET 0.000000 3.402643 0.000000 
		CHANNELS 3 Xrotation Zrotation Yrotation
		JOINT chest
		{
			OFFSET 0.000000 8.438565 -0.680529 
			CHANNELS 3 Xrotation Zrotation Yrotation
			JOINT neck
			{
				OFFSET 0.000000 10.207942 -0.272212 
				CHANNELS 3 Xrotation Zrotation Yrotation
				JOINT head
				{
					OFFSET 0.000000 3.130431 0.000000 
					CHANNELS 3 Xrotation Zrotation Yrotation
					End Site
					{
						OFFSET 0.000000 3.130435 0.000000 
					}
				}
			}
			JOINT lCollar
			{
				OFFSET 3.470700 6.669187 -0.816635 
				CHANNELS 3 Yrotation Zrotation Xrotation
				JOINT lShldr
				{
					OFFSET 3.198488 0.000000 0.000000 
					CHANNELS 3 Zrotation Yrotation Xrotation
					JOINT lForeArm
					{
						OFFSET 10.139888 0.000000 0.000000 
						CHANNELS 3 Yrotation Zrotation Xrotation
						JOINT lHand
						{
							OFFSET 8.370511 0.000000 0.000000 
							CHANNELS 3 Zrotation Yrotation Xrotation
							End Site
							{
								OFFSET 4.083176 0.000000 0.000000 
							}
						}
					}
				}
			}
			JOINT rCollar
			{
				OFFSET -3.470700 6.669187 -0.816635 
				CHANNELS 3 Yrotation Zrotation Xrotation
				JOINT rShldr
				{
					OFFSET -3.198488 0.000000 0.000000 
					CHANNELS 3 Zrotation Yrotation Xrotation
					JOINT rForeArm
					{
						OFFSET -10.139888 0.000000 0.000000 
						CHANNELS 3 Yrotation Zrotation Xrotation
						JOINT rHand
						{
							OFFSET -8.370511 0.000000 0.000000 
							CHANNELS 3 Zrotation Yrotation Xrotation
							End Site
							{
								OFFSET -4.083176 0.000000 0.000000 
							}
						}
					}
				}
			}
		}
	}
	JOINT lThigh
	{
		OFFSET 5.308129 -1.633274 1.361059 
		CHANNELS 3 Xrotation Zrotation Yrotation
		JOINT lShin
		{
			OFFSET -2.041588 -20.007561 0.000000 
			CHANNELS 3 Xrotation Zrotation Yrotation
			JOINT lFoot
			{
				OFFSET 0.000000 -19.190928 -1.224953 
				CHANNELS 3 Xrotation Yrotation Zrotation
				End Site
				{
					OFFSET 0.000000 -2.449906 4.627600 
				}
			}
		}
	}
	JOINT rThigh
	{
		OFFSET -5.308129 -1.633274 1.361059 
		CHANNELS 3 Xrotation Zrotation Yrotation
		JOINT rShin
		{
			OFFSET 2.041588 -20.007561 0.000000 
			CHANNELS 3 Xrotation Zrotation Yrotation
			JOINT rFoot
			{
				OFFSET 0.000000 -19.190928 -1.224953 
				CHANNELS 3 Xrotation Yrotation Zrotation
				End Site
				{
					OFFSET 0.000000 -2.449906 4.627600 
				}
			}
		}
	}
}
MOTION
Frames: 6
Frame Time: 0.033333
-25.726809 49.237541 113.667488 -7.315082 -3.308057 -19.809814 37.000477 3.726571 -8.670721 -15.181455 22.209146 -10.026030 5.283521 -1.542713 -36.304569 -0.347061 14.238942 -37.397118 1.053863 -4.824398 -0.009729 -67.311264 5.095126 6.940538 -76.179070 3.779407 48.839630 2.554260 18.040258 0.783540 3.827937 -1.104168 -0.009742 60.756542 -17.097181 -2.067918 49.586109 -3.024765 35.788494 -22.125135 -3.958025 1.596587 4.372298 -1.180232 20.888578 48.671402 -0.266731 -3.438234 13.064463 8.435744 -13.979219 -16.077745 -4.197088 -5.980719 29.862686 1.113122 2.482870 1.732203 -9.090398 12.172352 
-25.829563 49.307674 114.226921 -7.333467 -3.442230 -21.966070 37.375080 3.429748 -8.393587 -15.006743 22.136501 -9.629488 5.309114 -1.355015 -36.232521 -0.527732 14.232434 -37.345798 1.219886 -4.785365 -0.009729 -67.936577 5.426906 7.682966 -74.194122 3.776481 48.411369 3.017415 18.501455 0.958361 3.906014 -1.387384 -0.009740 60.895550 -15.706894 -2.397897 49.522083 -3.088355 36.700962 -21.772976 -4.312649 1.709552 2.844949 -0.352604 22.362022 51.820759 -0.056369 -3.560574 15.248508 7.784828 -14.178398 -15.516178 -4.062133 -5.631564 29.784960 1.122863 2.461892 1.397162 -7.293005 12.117902 
-25.932325 49.377769 114.786270 -7.355703 -3.574983 -24.122318 37.738415 3.122755 -8.117291 -14.825193 22.072348 -9.236577 5.335379 -1.166831 -36.170925 -0.698660 14.225895 -37.292080 1.376143 -4.746328 -0.009729 -68.562225 5.779058 8.409688 -72.199890 3.744851 47.983891 3.480274 18.971367 1.134636 3.984089 -1.680366 -0.009738 61.034435 -14.322737 -2.721874 49.466404 -3.151575 37.612091 -21.411579 -4.669127 1.817375 1.353813 0.520181 23.803186 54.951073 0.126173 -3.656269 17.459084 7.130656 -14.311276 -14.940584 -3.945230 -5.269094 29.697100 1.132790 2.450161 1.051902 -5.481284 12.068313 
-26.041275 49.415123 115.263916 -7.247943 -3.585195 -25.610497 37.991638 2.929541 -8.096262 -14.678092 21.818518 -9.104276 5.153977 -0.812168 -36.156582 -0.854932 14.305384 -37.297207 1.268766 -4.482638 -0.009733 -68.958244 6.075413 8.920183 -70.820534 3.741696 47.743740 2.590545 19.747379 0.869011 3.612979 -1.777959 -0.009742 61.343254 -12.732311 -2.700088 49.831703 -3.152376 37.671654 -22.677891 -4.718145 1.957793 -1.005688 1.551643 23.953651 58.634300 0.367176 -3.804655 17.767021 6.627030 -14.231685 -14.925988 -3.934102 -4.762178 30.332754 1.127720 2.461818 0.663718 -4.399421 12.049402 
-26.150196 49.452499 115.741600 -7.162584 -3.582991 -27.098581 38.243813 2.746043 -8.065575 -14.526349 21.563856 -8.981216 4.972743 -0.457400 -36.143974 -1.001452 14.384875 -37.302422 1.151622 -4.228712 -0.009737 -69.345078 6.368415 9.425592 -69.438896 3.726111 47.507103 1.706433 20.519255 0.590043 3.241868 -1.875552 -0.009745 61.660866 -11.139331 -2.668137 50.190044 -3.164484 37.728683 -23.944050 -4.754293 2.096477 -3.384843 2.569339 24.080584 62.327866 0.610680 -3.908672 18.087629 6.101133 -14.114261 -14.906784 -3.934288 -4.274217 30.978168 1.098474 2.487085 0.286963 -3.276578 12.030481 
-26.235710 49.501896 116.223511 -6.844356 -3.499218 -28.349150 38.132107 2.697502 -8.094843 -14.339515 21.429939 -8.952348 4.551348 -0.653817 -36.233307 -0.504767 14.433778 -37.342445 1.112541 -4.336127 -0.009736 -69.417969 6.505561 9.943183 -68.055580 3.748252 47.952984 1.029705 20.680691 0.356472 3.222344 -1.836486 -0.009745 61.749821 -10.118573 -2.837424 51.114517 -3.073661 36.712730 -23.537121 -4.616629 1.997165 -6.080141 3.606833 23.489479 65.279945 0.813797 -3.991121 17.655962 5.689048 -13.957794 -14.927152 -3.973287 -4.145741 31.455784 1.054477 2.558104 -0.517360 -2.424102 12.006234 
